<svg id="Layer_1" data-name="Layer 1" xmlns="http://www.w3.org/2000/svg" viewBox="0 0 1920 400"><title>Word Mark</title><path d="M509.24,87.1V264.76h-29.4V131.58L428.46,264.76H402.89L351.25,131.58V264.76H322.11V87.1h35.28L416.19,229,474,87.1Z"/><path d="M623.25,131.58a51,51,0,0,1,19.17,25V123.91h29.14V264.76H642.42V232a50.87,50.87,0,0,1-19.17,25q-13.56,9.46-32.73,9.46-18.4,0-32.85-8.69t-22.62-25.05q-8.17-16.35-8.18-38.6,0-22,8.18-38.34t22.62-25.06q14.45-8.69,32.85-8.69Q609.7,122.12,623.25,131.58Zm-54.84,28.5q-11.64,12.4-11.63,34.13t11.63,34.13q11.63,12.39,31.06,12.4a42.25,42.25,0,0,0,22-5.76,40.79,40.79,0,0,0,15.34-16.23q5.63-10.49,5.63-24.54a51.32,51.32,0,0,0-5.63-24.41,40.62,40.62,0,0,0-15.34-16.36,42.24,42.24,0,0,0-22-5.75Q580,147.69,568.41,160.08Z"/><path d="M697.37,70.74q5.11-4.84,13.55-4.86t13.68,4.86A16,16,0,0,1,729.84,83a15.24,15.24,0,0,1-5.24,12q-5.25,4.59-13.68,4.6T697.37,95a15.4,15.4,0,0,1-5.11-12A16.2,16.2,0,0,1,697.37,70.74Zm28.12,53.17V264.76H696.35V123.91Z"/><path d="M774.58,75.6V264.76H745.43V75.6Z"/><path d="M1056.79,87.1V264.76h-29.4V131.58L976,264.76H950.45L898.81,131.58V264.76H869.67V87.1H905L963.74,229,1021.52,87.1Z"/><path d="M1206.33,200.09H1097.94q.78,21.74,12,32.21t27.86,10.48q14.58,0,24.67-7.41a30.63,30.63,0,0,0,12.4-19.69h31.19a59.86,59.86,0,0,1-35,44.35,76.21,76.21,0,0,1-32,6.52q-20.44,0-36.17-8.69a61.75,61.75,0,0,1-24.67-25.05q-9-16.35-8.94-38.6,0-22,8.94-38.34a61.84,61.84,0,0,1,24.67-25.06q15.72-8.69,36.17-8.69,20.72,0,36.17,8.57a59.59,59.59,0,0,1,23.78,23.51,72.51,72.51,0,0,1,7.28,45.89Zm-33.1-36.43a32.93,32.93,0,0,0-14.31-13.8,44.29,44.29,0,0,0-19.82-4.48q-17.13,0-28.63,10.49t-12.53,30.93h80Q1178.47,173,1173.23,163.66Z"/><path d="M1269.73,129.66q13.29-8,30.68-8v31.7h-8.7q-19.17,0-30.8,9.33t-11.63,30.8v71.32h-29.14V123.91h29.14v27.61A54.36,54.36,0,0,1,1269.73,129.66Z"/><path d="M1401.12,131.58a51,51,0,0,1,19.17,25V123.91h29.15V266.3q0,19.68-8.06,34.89a58.92,58.92,0,0,1-23.13,23.9q-15.09,8.69-35.79,8.7-29.65,0-47.93-14.06t-22.88-38.09h28.89a34.37,34.37,0,0,0,13.8,19.55q10.22,7,26.07,7,17.38,0,28.64-10.74t11.24-31.18V232a50.87,50.87,0,0,1-19.17,25q-13.56,9.46-32.72,9.46-18.4,0-32.85-8.69t-22.62-25.05q-8.19-16.35-8.18-38.6,0-22,8.18-38.34t22.62-25.06q14.45-8.69,32.85-8.69Q1387.57,122.12,1401.12,131.58Zm-54.83,28.5q-11.64,12.4-11.63,34.13t11.63,34.13q11.63,12.39,31.06,12.4a42.27,42.27,0,0,0,22-5.76,40.79,40.79,0,0,0,15.34-16.23q5.61-10.49,5.62-24.54a51.44,51.44,0,0,0-5.62-24.41,40.62,40.62,0,0,0-15.34-16.36,42.27,42.27,0,0,0-22-5.75Q1357.91,147.69,1346.29,160.08Z"/><path d="M1599,200.09H1490.59q.77,21.74,12,32.21t27.86,10.48q14.57,0,24.67-7.41a30.67,30.67,0,0,0,12.4-19.69h31.18a59.86,59.86,0,0,1-35,44.35,76.2,76.2,0,0,1-32,6.52q-20.46,0-36.18-8.69a61.81,61.81,0,0,1-24.67-25.05q-8.94-16.35-8.94-38.6,0-22,8.94-38.34a61.9,61.9,0,0,1,24.67-25.06q15.73-8.69,36.18-8.69,20.7,0,36.17,8.57a59.56,59.56,0,0,1,23.77,23.51,72.68,72.68,0,0,1,7.29,45.89Zm-33.11-36.43a32.82,32.82,0,0,0-14.31-13.8,44.24,44.24,0,0,0-19.81-4.48q-17.13,0-28.63,10.49t-12.53,30.93h80Q1571.11,173,1565.87,163.66Z"/></svg>